<svg xmlns="http://www.w3.org/2000/svg" width="1760" height="1180" viewBox="0 0 1760 1180" role="img" aria-label="DeepVBH architecture figure">

<defs>
  <marker id="arrow" viewBox="0 0 12 12" refX="10" refY="6" markerWidth="8" markerHeight="8" orient="auto">
    <path d="M 0 1 L 11 6 L 0 11 z" fill="#273B67" />
  </marker>
</defs>
<rect width="1760" height="1180" fill="#FFFFFF" />
<text x="28.0" y="48.0" font-size="30" font-weight="700" text-anchor="start" fill="#1C1C1C" font-family="'Times New Roman', Times, serif" style="">(a)</text>
<rect x="86.0" y="22.0" width="500.0" height="162.0" rx="28.0" fill="none" stroke="#273B67" stroke-width="3.2" stroke-dasharray="10 8" />
<rect x="176.0" y="50.0" width="320.0" height="56.0" rx="14.0" fill="#F6F7FA" stroke="#273B67" stroke-width="3.0" />
<text x="336.0" y="86.0" font-size="23" font-weight="600" text-anchor="middle" fill="#1C1C1C" font-family="'Times New Roman', Times, serif"><tspan x="336.0" dy="0">Input Tensors</tspan></text>
<rect x="176.0" y="118.0" width="320.0" height="56.0" rx="14.0" fill="#E9EEF8" stroke="#273B67" stroke-width="3.0" />
<text x="336.0" y="154.0" font-size="23" font-weight="600" text-anchor="middle" fill="#1C1C1C" font-family="'Times New Roman', Times, serif"><tspan x="336.0" dy="0">Pair Feature Projector</tspan></text>
<line x1="336.0" y1="106.0" x2="336.0" y2="118.0" stroke="#273B67" stroke-width="3.0" stroke-linecap="round" marker-end="url(#arrow)" />
<rect x="86.0" y="218.0" width="500.0" height="520.0" rx="34.0" fill="#EAF3E0" stroke="#273B67" stroke-width="3.2" />
<rect x="86.0" y="218.0" width="500.0" height="520.0" rx="34.0" fill="none" stroke="#273B67" stroke-width="3.0" stroke-dasharray="10 8" />
<rect x="160.0" y="256.0" width="352.0" height="78.0" rx="14.0" fill="#FFF3BF" stroke="#273B67" stroke-width="3.0" />
<text x="336.0" y="303.0" font-size="23" font-weight="600" text-anchor="middle" fill="#1C1C1C" font-family="'Times New Roman', Times, serif"><tspan x="336.0" dy="0">Pair-Biased Attention</tspan></text>
<rect x="160.0" y="374.0" width="352.0" height="62.0" rx="14.0" fill="#F8C8A8" stroke="#273B67" stroke-width="3.0" />
<text x="336.0" y="413.0" font-size="23" font-weight="600" text-anchor="middle" fill="#1C1C1C" font-family="'Times New Roman', Times, serif"><tspan x="336.0" dy="0">Add &amp; LayerNorm</tspan></text>
<rect x="160.0" y="496.0" width="352.0" height="78.0" rx="14.0" fill="#FFF7D7" stroke="#273B67" stroke-width="3.0" />
<text x="336.0" y="543.0" font-size="23" font-weight="600" text-anchor="middle" fill="#1C1C1C" font-family="'Times New Roman', Times, serif"><tspan x="336.0" dy="0">Gated Feed-Forward</tspan></text>
<rect x="160.0" y="614.0" width="352.0" height="62.0" rx="14.0" fill="#DEE6F6" stroke="#273B67" stroke-width="3.0" />
<text x="336.0" y="653.0" font-size="23" font-weight="600" text-anchor="middle" fill="#1C1C1C" font-family="'Times New Roman', Times, serif"><tspan x="336.0" dy="0">Add &amp; LayerNorm</tspan></text>
<line x1="336.0" y1="174.0" x2="336.0" y2="256.0" stroke="#273B67" stroke-width="3.0" stroke-linecap="round" marker-end="url(#arrow)" />
<line x1="336.0" y1="334.0" x2="336.0" y2="374.0" stroke="#273B67" stroke-width="3.0" stroke-linecap="round" marker-end="url(#arrow)" />
<line x1="336.0" y1="436.0" x2="336.0" y2="496.0" stroke="#273B67" stroke-width="3.0" stroke-linecap="round" marker-end="url(#arrow)" />
<line x1="336.0" y1="574.0" x2="336.0" y2="614.0" stroke="#273B67" stroke-width="3.0" stroke-linecap="round" marker-end="url(#arrow)" />
<path d="M 160 295 L 132 295 L 132 405 L 320 405" fill="none" stroke="#273B67" stroke-width="3.0" stroke-linecap="round" stroke-linejoin="round" marker-end="url(#arrow)" />
<circle cx="336.0" cy="405.0" r="16.0" fill="#FFFFFF" stroke="#273B67" stroke-width="3.0" />
<line x1="328.0" y1="405.0" x2="344.0" y2="405.0" stroke="#273B67" stroke-width="3.0" stroke-linecap="round" />
<line x1="336.0" y1="397.0" x2="336.0" y2="413.0" stroke="#273B67" stroke-width="3.0" stroke-linecap="round" />
<path d="M 160 535 L 132 535 L 132 645 L 320 645" fill="none" stroke="#273B67" stroke-width="3.0" stroke-linecap="round" stroke-linejoin="round" marker-end="url(#arrow)" />
<circle cx="336.0" cy="645.0" r="16.0" fill="#FFFFFF" stroke="#273B67" stroke-width="3.0" />
<line x1="328.0" y1="645.0" x2="344.0" y2="645.0" stroke="#273B67" stroke-width="3.0" stroke-linecap="round" />
<line x1="336.0" y1="637.0" x2="336.0" y2="653.0" stroke="#273B67" stroke-width="3.0" stroke-linecap="round" />
<text x="484.0" y="716.0" font-size="34" font-weight="500" text-anchor="start" fill="#1C1C1C" font-family="'Times New Roman', Times, serif" style="font-style:italic;">× L</text>
<text x="112.0" y="770.0" font-size="18" font-weight="500" text-anchor="start" fill="#666666" font-family="'Times New Roman', Times, serif" style="">R and m condition every Transformer block</text>
<text x="112.0" y="796.0" font-size="18" font-weight="500" text-anchor="start" fill="#666666" font-family="'Times New Roman', Times, serif" style="">S_IJ is injected only at the readout stage</text>
<rect x="86.0" y="776.0" width="500.0" height="142.0" rx="22.0" fill="#FFF7D7" stroke="#273B67" stroke-width="3.2" />
<rect x="148.0" y="816.0" width="376.0" height="62.0" rx="14.0" fill="#FFF7D7" stroke="#273B67" stroke-width="3.0" />
<text x="336.0" y="855.0" font-size="23" font-weight="600" text-anchor="middle" fill="#1C1C1C" font-family="'Times New Roman', Times, serif"><tspan x="336.0" dy="0">Overlap-Conditioned Readout</tspan></text>
<line x1="336.0" y1="676.0" x2="336.0" y2="816.0" stroke="#273B67" stroke-width="3.0" stroke-linecap="round" marker-end="url(#arrow)" />
<line x1="336.0" y1="878.0" x2="336.0" y2="956.0" stroke="#273B67" stroke-width="3.0" stroke-linecap="round" marker-end="url(#arrow)" />
<text x="336.0" y="994.0" font-size="24" font-weight="600" text-anchor="middle" fill="#1C1C1C" font-family="'Times New Roman', Times, serif" style="">Predicted matrix element  H_hat(I,J)</text>
<text x="336.0" y="88.0" font-size="20" font-weight="500" text-anchor="middle" fill="#1C1C1C" font-family="'Times New Roman', Times, serif" style="font-style:italic;">X_IJ,  R,  m,  S_IJ</text>
<text x="630.0" y="48.0" font-size="30" font-weight="700" text-anchor="start" fill="#1C1C1C" font-family="'Times New Roman', Times, serif" style="">(b)</text>
<rect x="742.0" y="72.0" width="990.0" height="394.0" rx="0.0" fill="#FFF3BF" stroke="#273B67" stroke-width="3.2" />
<text x="840.0" y="44.0" font-size="24" font-weight="600" text-anchor="start" fill="#1C1C1C" font-family="'Times New Roman', Times, serif" style="font-style:italic;">token states  z^l</text>
<text x="1492.0" y="44.0" font-size="24" font-weight="600" text-anchor="start" fill="#1C1C1C" font-family="'Times New Roman', Times, serif" style="font-style:italic;">pair relation  R</text>
<rect x="820.0" y="120.0" width="84.0" height="50.0" rx="4.0" fill="#FFFFFF" stroke="#273B67" stroke-width="2.6" />
<text x="862.0" y="151.0" font-size="18" font-weight="600" text-anchor="middle" fill="#1C1C1C" font-family="'Times New Roman', Times, serif" style="">Q</text>
<rect x="928.0" y="120.0" width="84.0" height="50.0" rx="4.0" fill="#FFFFFF" stroke="#273B67" stroke-width="2.6" />
<text x="970.0" y="151.0" font-size="18" font-weight="600" text-anchor="middle" fill="#1C1C1C" font-family="'Times New Roman', Times, serif" style="">K</text>
<rect x="1036.0" y="120.0" width="84.0" height="50.0" rx="4.0" fill="#FFFFFF" stroke="#273B67" stroke-width="2.6" />
<text x="1078.0" y="151.0" font-size="18" font-weight="600" text-anchor="middle" fill="#1C1C1C" font-family="'Times New Roman', Times, serif" style="">V</text>
<rect x="1484.0" y="120.0" width="106.0" height="50.0" rx="4.0" fill="#FFFFFF" stroke="#273B67" stroke-width="2.6" />
<text x="1537.0" y="151.0" font-size="18" font-weight="600" text-anchor="middle" fill="#1C1C1C" font-family="'Times New Roman', Times, serif" style="">Bias B(R)</text>
<rect x="1484.0" y="210.0" width="106.0" height="50.0" rx="4.0" fill="#FFFFFF" stroke="#273B67" stroke-width="2.6" />
<text x="1537.0" y="241.0" font-size="18" font-weight="600" text-anchor="middle" fill="#1C1C1C" font-family="'Times New Roman', Times, serif" style="">Value U(R)</text>
<rect x="1170.0" y="182.0" width="250.0" height="74.0" rx="14.0" fill="#F6F7FA" stroke="#273B67" stroke-width="3.0" />
<text x="1295.0" y="210.0" font-size="20" font-weight="600" text-anchor="middle" fill="#1C1C1C" font-family="'Times New Roman', Times, serif"><tspan x="1295.0" dy="0">Attention weights</tspan><tspan x="1295.0" dy="24">softmax(QK^T / sqrt(d) + B(R))</tspan></text>
<line x1="862.0" y1="88.0" x2="862.0" y2="120.0" stroke="#273B67" stroke-width="3.0" stroke-linecap="round" marker-end="url(#arrow)" />
<line x1="970.0" y1="88.0" x2="970.0" y2="120.0" stroke="#273B67" stroke-width="3.0" stroke-linecap="round" marker-end="url(#arrow)" />
<line x1="1078.0" y1="88.0" x2="1078.0" y2="120.0" stroke="#273B67" stroke-width="3.0" stroke-linecap="round" marker-end="url(#arrow)" />
<line x1="1537.0" y1="88.0" x2="1537.0" y2="120.0" stroke="#273B67" stroke-width="3.0" stroke-linecap="round" marker-end="url(#arrow)" />
<path d="M 1537 88 L 1537 196" fill="none" stroke="#273B67" stroke-width="3.0" stroke-linecap="round" stroke-linejoin="round" marker-end="url(#arrow)" />
<path d="M 862 170 L 862 220 L 1170 220" fill="none" stroke="#273B67" stroke-width="3.0" stroke-linecap="round" stroke-linejoin="round" marker-end="url(#arrow)" />
<path d="M 970 170 L 970 220 L 1170 220" fill="none" stroke="#273B67" stroke-width="3.0" stroke-linecap="round" stroke-linejoin="round" marker-end="url(#arrow)" />
<path d="M 1537 170 L 1537 220 L 1420 220" fill="none" stroke="#273B67" stroke-width="3.0" stroke-linecap="round" stroke-linejoin="round" marker-end="url(#arrow)" />
<circle cx="1198.0" cy="318.0" r="16.0" fill="#FFFFFF" stroke="#273B67" stroke-width="3.0" />
<line x1="1190.0" y1="318.0" x2="1206.0" y2="318.0" stroke="#273B67" stroke-width="3.0" stroke-linecap="round" />
<line x1="1198.0" y1="310.0" x2="1198.0" y2="326.0" stroke="#273B67" stroke-width="3.0" stroke-linecap="round" />
<circle cx="1398.0" cy="318.0" r="16.0" fill="#FFFFFF" stroke="#273B67" stroke-width="3.0" />
<line x1="1390.0" y1="318.0" x2="1406.0" y2="318.0" stroke="#273B67" stroke-width="3.0" stroke-linecap="round" />
<line x1="1398.0" y1="310.0" x2="1398.0" y2="326.0" stroke="#273B67" stroke-width="3.0" stroke-linecap="round" />
<text x="1198.0" y="325.0" font-size="32" font-weight="600" text-anchor="middle" fill="#1C1C1C" font-family="'Times New Roman', Times, serif" style="">·</text>
<text x="1398.0" y="325.0" font-size="32" font-weight="600" text-anchor="middle" fill="#1C1C1C" font-family="'Times New Roman', Times, serif" style="">·</text>
<path d="M 1295 256 L 1295 318 L 1214 318" fill="none" stroke="#273B67" stroke-width="3.0" stroke-linecap="round" stroke-linejoin="round" marker-end="url(#arrow)" />
<path d="M 1295 256 L 1295 318 L 1382 318" fill="none" stroke="#273B67" stroke-width="3.0" stroke-linecap="round" stroke-linejoin="round" marker-end="url(#arrow)" />
<path d="M 1078 170 L 1078 318 L 1182 318" fill="none" stroke="#273B67" stroke-width="3.0" stroke-linecap="round" stroke-linejoin="round" marker-end="url(#arrow)" />
<path d="M 1537 260 L 1537 318 L 1414 318" fill="none" stroke="#273B67" stroke-width="3.0" stroke-linecap="round" stroke-linejoin="round" marker-end="url(#arrow)" />
<rect x="1248.0" y="350.0" width="96.0" height="46.0" rx="4.0" fill="#FFFFFF" stroke="#273B67" stroke-width="2.6" />
<text x="1296.0" y="379.0" font-size="18" font-weight="600" text-anchor="middle" fill="#1C1C1C" font-family="'Times New Roman', Times, serif" style="">Sum</text>
<path d="M 1198 334 L 1198 373 L 1248 373" fill="none" stroke="#273B67" stroke-width="3.0" stroke-linecap="round" stroke-linejoin="round" marker-end="url(#arrow)" />
<path d="M 1398 334 L 1398 373 L 1344 373" fill="none" stroke="#273B67" stroke-width="3.0" stroke-linecap="round" stroke-linejoin="round" marker-end="url(#arrow)" />
<rect x="1140.0" y="414.0" width="312.0" height="54.0" rx="4.0" fill="#FFFFFF" stroke="#273B67" stroke-width="2.6" />
<text x="1296.0" y="447.0" font-size="18" font-weight="600" text-anchor="middle" fill="#1C1C1C" font-family="'Times New Roman', Times, serif" style="">Linear + residual + LayerNorm</text>
<line x1="1296.0" y1="396.0" x2="1296.0" y2="414.0" stroke="#273B67" stroke-width="3.0" stroke-linecap="round" marker-end="url(#arrow)" />
<line x1="1296.0" y1="468.0" x2="1296.0" y2="524.0" stroke="#273B67" stroke-width="3.0" stroke-linecap="round" marker-end="url(#arrow)" />
<text x="1296.0" y="554.0" font-size="26" font-weight="600" text-anchor="middle" fill="#1C1C1C" font-family="'Times New Roman', Times, serif" style="font-style:italic;">updated token  z^(l+1)</text>
<text x="1458.0" y="436.0" font-size="24" font-weight="600" text-anchor="start" fill="#1C1C1C" font-family="'Times New Roman', Times, serif" style="">Pair-Biased Attention</text>
<text x="630.0" y="572.0" font-size="30" font-weight="700" text-anchor="start" fill="#1C1C1C" font-family="'Times New Roman', Times, serif" style="">(c)</text>
<rect x="1034.0" y="610.0" width="210.0" height="54.0" rx="4.0" fill="#FFFFFF" stroke="#273B67" stroke-width="2.6" />
<text x="1139.0" y="643.0" font-size="18" font-weight="600" text-anchor="middle" fill="#1C1C1C" font-family="'Times New Roman', Times, serif" style="">Masked Mean Pool</text>
<text x="1139.0" y="592.0" font-size="24" font-weight="600" text-anchor="middle" fill="#1C1C1C" font-family="'Times New Roman', Times, serif" style="font-style:italic;">pooled token  z_bar</text>
<line x1="1139.0" y1="604.0" x2="1139.0" y2="610.0" stroke="#273B67" stroke-width="3.0" stroke-linecap="round" marker-end="url(#arrow)" />
<rect x="860.0" y="746.0" width="188.0" height="56.0" rx="4.0" fill="#E9EEF8" stroke="#273B67" stroke-width="2.6" />
<text x="954.0" y="780.0" font-size="18" font-weight="600" text-anchor="middle" fill="#1C1C1C" font-family="'Times New Roman', Times, serif" style="">Linear + GELU</text>
<rect x="1300.0" y="746.0" width="188.0" height="56.0" rx="4.0" fill="#EAF3E0" stroke="#273B67" stroke-width="2.6" />
<text x="1394.0" y="780.0" font-size="18" font-weight="600" text-anchor="middle" fill="#1C1C1C" font-family="'Times New Roman', Times, serif" style="">Linear + GELU</text>
<path d="M 1139 664 L 1139 706 L 954 706 L 954 746" fill="none" stroke="#273B67" stroke-width="3.0" stroke-linecap="round" stroke-linejoin="round" marker-end="url(#arrow)" />
<text x="1394.0" y="698.0" font-size="22" font-weight="600" text-anchor="middle" fill="#1C1C1C" font-family="'Times New Roman', Times, serif" style="font-style:italic;">[S_IJ, |S_IJ|, sign(S_IJ)]</text>
<line x1="1394.0" y1="710.0" x2="1394.0" y2="746.0" stroke="#273B67" stroke-width="3.0" stroke-linecap="round" marker-end="url(#arrow)" />
<rect x="1030.0" y="858.0" width="220.0" height="54.0" rx="4.0" fill="#FFFFFF" stroke="#273B67" stroke-width="2.6" />
<text x="1140.0" y="891.0" font-size="18" font-weight="600" text-anchor="middle" fill="#1C1C1C" font-family="'Times New Roman', Times, serif" style="">Concat</text>
<path d="M 954 802 L 954 885 L 1030 885" fill="none" stroke="#273B67" stroke-width="3.0" stroke-linecap="round" stroke-linejoin="round" marker-end="url(#arrow)" />
<path d="M 1394 802 L 1394 885 L 1250 885" fill="none" stroke="#273B67" stroke-width="3.0" stroke-linecap="round" stroke-linejoin="round" marker-end="url(#arrow)" />
<rect x="930.0" y="950.0" width="420.0" height="78.0" rx="16.0" fill="#E9EEF8" stroke="#273B67" stroke-width="3.0" />
<text x="1140.0" y="979.0" font-size="22" font-weight="600" text-anchor="middle" fill="#1C1C1C" font-family="'Times New Roman', Times, serif"><tspan x="1140.0" dy="0">Linear(128 -&gt; 64) + GELU</tspan><tspan x="1140.0" dy="26">Linear(64 -&gt; 1) + softplus</tspan></text>
<line x1="1140.0" y1="912.0" x2="1140.0" y2="950.0" stroke="#273B67" stroke-width="3.0" stroke-linecap="round" marker-end="url(#arrow)" />
<rect x="852.0" y="1066.0" width="576.0" height="88.0" rx="18.0" fill="#FFF7D7" stroke="#273B67" stroke-width="3.2" />
<text x="1140.0" y="1098.0" font-size="22" font-weight="600" text-anchor="middle" fill="#1C1C1C" font-family="'Times New Roman', Times, serif"><tspan x="1140.0" dy="0">H_hat(I,J) = - sign(S_IJ) * softplus(g_theta(z_bar, S_IJ))</tspan><tspan x="1140.0" dy="26">Overlap-conditioned scalar readout</tspan></text>
<line x1="1140.0" y1="1028.0" x2="1140.0" y2="1066.0" stroke="#273B67" stroke-width="3.0" stroke-linecap="round" marker-end="url(#arrow)" />
</svg>
